<?xml version="1.0" encoding="UTF-8"?>
<svg xmlns="http://www.w3.org/2000/svg" xmlns:xlink="http://www.w3.org/1999/xlink" viewBox="0 0 150 150" width="150px" height="150px">
<g id="surface65397372">
<path style=" stroke:none;fill-rule:nonzero;fill:rgb(90.196079%,49.411765%,13.333334%);fill-opacity:1;" d="M 124.875 32.308594 C 112.933594 22.699219 94.042969 21.070312 93.234375 21.011719 C 91.980469 20.90625 90.785156 21.609375 90.269531 22.769531 C 90.222656 22.839844 89.8125 23.789062 89.355469 25.265625 C 97.253906 26.601562 106.957031 29.285156 115.734375 34.734375 C 117.140625 35.601562 117.574219 37.453125 116.707031 38.859375 C 116.132812 39.785156 115.160156 40.289062 114.152344 40.289062 C 113.613281 40.289062 113.0625 40.136719 112.570312 39.832031 C 97.476562 30.46875 78.632812 30 75 30 C 71.367188 30 52.511719 30.46875 37.429688 39.832031 C 36.023438 40.710938 34.171875 40.277344 33.304688 38.871094 C 32.425781 37.453125 32.859375 35.613281 34.265625 34.734375 C 43.042969 29.296875 52.746094 26.601562 60.644531 25.277344 C 60.1875 23.789062 59.777344 22.851562 59.742188 22.769531 C 59.214844 21.609375 58.03125 20.882812 56.765625 21.011719 C 55.957031 21.070312 37.066406 22.699219 24.960938 32.4375 C 18.644531 38.285156 6 72.457031 6 102 C 6 102.527344 6.140625 103.03125 6.398438 103.488281 C 15.117188 118.816406 38.917969 122.824219 44.34375 123 C 44.367188 123 44.402344 123 44.4375 123 C 45.398438 123 46.300781 122.542969 46.863281 121.769531 L 52.347656 114.222656 C 37.546875 110.402344 29.988281 103.910156 29.554688 103.523438 C 28.3125 102.433594 28.195312 100.535156 29.296875 99.292969 C 30.386719 98.050781 32.285156 97.933594 33.527344 99.023438 C 33.703125 99.1875 47.625 111 75 111 C 102.421875 111 116.34375 99.140625 116.484375 99.023438 C 117.726562 97.945312 119.613281 98.050781 120.714844 99.304688 C 121.804688 100.546875 121.6875 102.433594 120.445312 103.523438 C 120.011719 103.910156 112.453125 110.402344 97.652344 114.222656 L 103.136719 121.769531 C 103.699219 122.542969 104.601562 123 105.5625 123 C 105.597656 123 105.632812 123 105.65625 123 C 111.082031 122.824219 134.882812 118.816406 143.601562 103.488281 C 143.859375 103.03125 144 102.527344 144 102 C 144 72.457031 131.355469 38.285156 124.875 32.308594 Z M 55.5 90 C 49.699219 90 45 84.632812 45 78 C 45 71.367188 49.699219 66 55.5 66 C 61.300781 66 66 71.367188 66 78 C 66 84.632812 61.300781 90 55.5 90 Z M 94.5 90 C 88.699219 90 84 84.632812 84 78 C 84 71.367188 88.699219 66 94.5 66 C 100.300781 66 105 71.367188 105 78 C 105 84.632812 100.300781 90 94.5 90 Z M 94.5 90 "/>
</g>
</svg>
